# xmcd
#
# Track frame offsets:
#	150
#	23861
#	41196
#	58493
#	87324
#	104133
#	126250
#	145201
#	167639
#	185146
#	206413
#	226340
#	256545
#	274625
#	298371
#	316519
#
# Disc length: 4613 seconds
#
# Revision: 1
# Processed by: cddbd v1.5.2PL0 Copyright (c) Steve Scherf et al.
# Submitted via: audiograbber 1.83.01
#
DISCID=f3120310
DTITLE=Van Morrison - Duets Re-Working The Catalogue
DYEAR=2015
DGENRE=Blues Rock
TTITLE0=Some Peace Of Mind (with Bobby Womack)
TTITLE1=If I Ever Needed Someone (with Mavis Staples)
TTITLE2=Higher Than The World (with George Benson)
TTITLE3=Wild Honey (with Joss Stone)
TTITLE4=Whatever Happened to P.J. Proby (with P.J. Proby)
TTITLE5=Carrying A Torch (with Clare Teal)
TTITLE6=The Eternal Kansas City (with Gregory Porter)
TTITLE7=Streets of Arklow (with Mick Hucknall)
TTITLE8=These Are The Days (with Natalie Cole)
TTITLE9=Get On With The Show (with Georgie Fame)
TTITLE10=Rough God Goes Riding (with Shana Morrison)
TTITLE11=Fire In The Belly (with Steve Winwood)
TTITLE12=Born To Sing (with Chris Farlowe)
TTITLE13=Irish Heartbeat (with Mark Knopfler)
TTITLE14=Real Real Gone (with Michael Bublé)
TTITLE15=How Can A Poor Boy? (with Taj Mahal)
EXTD=
EXTT0=
EXTT1=
EXTT2=
EXTT3=
EXTT4=
EXTT5=
EXTT6=
EXTT7=
EXTT8=
EXTT9=
EXTT10=
EXTT11=
EXTT12=
EXTT13=
EXTT14=
EXTT15=
PLAYORDER=
